<svg width="24" height="25" viewBox="0 0 24 25" fill="none" xmlns="http://www.w3.org/2000/svg">
<path d="M21 12.5C21 14.8869 20.0518 17.1761 18.364 18.864C16.6761 20.5518 14.3869 21.5 12 21.5M21 12.5C21 10.1131 20.0518 7.82387 18.364 6.13604C16.6761 4.44821 14.3869 3.5 12 3.5M21 12.5H3M12 21.5C9.61305 21.5 7.32387 20.5518 5.63604 18.864C3.94821 17.1761 3 14.8869 3 12.5M12 21.5C13.657 21.5 15 17.47 15 12.5C15 7.53 13.657 3.5 12 3.5M12 21.5C10.343 21.5 9 17.47 9 12.5C9 7.53 10.343 3.5 12 3.5M12 3.5C9.61305 3.5 7.32387 4.44821 5.63604 6.13604C3.94821 7.82387 3 10.1131 3 12.5" stroke="#4884DA" stroke-width="1.5" stroke-linecap="round" stroke-linejoin="round"/>
</svg>
