<svg width="18" height="18" viewBox="0 0 18 18" fill="none" xmlns="http://www.w3.org/2000/svg">
<path fill-rule="evenodd" clip-rule="evenodd" d="M6.56369 13.2362C6.39497 13.0675 6.30018 12.8386 6.30018 12.5999C6.30018 12.3613 6.39497 12.1324 6.56369 11.9636L9.52739 8.99995L6.56369 6.03625C6.39975 5.86651 6.30903 5.63916 6.31108 5.40319C6.31314 5.16721 6.40779 4.94148 6.57465 4.77461C6.74152 4.60774 6.96725 4.51309 7.20323 4.51104C7.43921 4.50899 7.66655 4.59971 7.83629 4.76365L11.4363 8.36365C11.605 8.53242 11.6998 8.7613 11.6998 8.99995C11.6998 9.2386 11.605 9.46747 11.4363 9.63625L7.83629 13.2362C7.66752 13.405 7.43864 13.4998 7.19999 13.4998C6.96134 13.4998 6.73247 13.405 6.56369 13.2362Z" fill="#D5485A"/>
</svg>
