<svg width="15" height="16" viewBox="0 0 15 16" fill="none" xmlns="http://www.w3.org/2000/svg">
<path fill-rule="evenodd" clip-rule="evenodd" d="M7.60015 15.2C9.50971 15.2 11.3411 14.4415 12.6913 13.0912C14.0416 11.741 14.8001 9.90961 14.8001 8.00005C14.8001 6.09049 14.0416 4.25914 12.6913 2.90888C11.3411 1.55862 9.50971 0.800049 7.60015 0.800049C5.69059 0.800049 3.85924 1.55862 2.50898 2.90888C1.15872 4.25914 0.400146 6.09049 0.400146 8.00005C0.400146 9.90961 1.15872 11.741 2.50898 13.0912C3.85924 14.4415 5.69059 15.2 7.60015 15.2ZM10.9364 7.36375L8.23645 4.66375C8.0667 4.49981 7.83936 4.40909 7.60339 4.41114C7.36741 4.41319 7.14168 4.50784 6.97481 4.67471C6.80794 4.84158 6.71329 5.06731 6.71124 5.30329C6.70919 5.53927 6.7999 5.76661 6.96385 5.93635L8.12755 7.10005H4.90015C4.66145 7.10005 4.43253 7.19487 4.26375 7.36365C4.09497 7.53244 4.00015 7.76135 4.00015 8.00005C4.00015 8.23874 4.09497 8.46766 4.26375 8.63645C4.43253 8.80523 4.66145 8.90005 4.90015 8.90005H8.12755L6.96385 10.0637C6.87789 10.1468 6.80932 10.2461 6.76216 10.3559C6.71499 10.4657 6.69016 10.5838 6.68912 10.7033C6.68808 10.8228 6.71085 10.9413 6.75611 11.0519C6.80136 11.1625 6.86819 11.263 6.95269 11.3475C7.03719 11.432 7.13768 11.4988 7.24829 11.5441C7.35889 11.5893 7.47741 11.6121 7.59691 11.6111C7.71641 11.61 7.83451 11.5852 7.94431 11.538C8.05411 11.4909 8.15342 11.4223 8.23645 11.3363L10.9364 8.63635C11.1052 8.46757 11.2 8.2387 11.2 8.00005C11.2 7.7614 11.1052 7.53252 10.9364 7.36375Z" fill="#0E9F6E"/>
</svg>
