<svg width="100" height="34" viewBox="0 0 100 34" fill="none" xmlns="http://www.w3.org/2000/svg">
<g clip-path="url(#clip0_774_6626)">
<path d="M0 17C0 26.3888 7.61115 34 17 34V0C7.61115 0 0 7.61115 0 17Z" fill="#1D4C90"/>
<path d="M34 17C34 7.61115 26.3888 8.20799e-07 17 0V34C26.3888 34 34 26.3888 34 17Z" fill="#D5485A"/>
<g filter="url(#filter0_d_774_6626)">
<path d="M5.97314 16.9999C5.97314 23.0901 10.9101 28.027 17.0002 28.027V5.9729C10.9101 5.9729 5.97314 10.9099 5.97314 16.9999Z" fill="#D5485A"/>
<path d="M28.027 16.9999C28.027 10.9099 23.0901 5.9729 17 5.9729V28.027C23.0901 28.027 28.027 23.0901 28.027 16.9999Z" fill="#1D4C90"/>
</g>
<g filter="url(#filter1_d_774_6626)">
<path d="M11.2568 17.0001C11.2568 20.172 13.8282 22.7433 17.0001 22.7433V11.2568C13.8282 11.2568 11.2568 13.8282 11.2568 17.0001Z" fill="#1D4C90"/>
<path d="M22.7432 17.0001C22.7432 13.8282 20.1719 11.2568 17 11.2568V22.7433C20.1719 22.7433 22.7432 20.172 22.7432 17.0001Z" fill="#D5485A"/>
</g>
</g>
<path d="M51.5348 10.252C51.5348 10.8214 51.4625 11.3394 51.3178 11.806C51.1778 12.2727 50.9631 12.674 50.6738 13.01C50.3891 13.3414 50.0298 13.6004 49.5958 13.787C49.1618 13.969 48.6508 14.06 48.0628 14.06C47.7968 14.06 47.5331 14.046 47.2718 14.018C47.0151 13.99 46.7468 13.9434 46.4668 13.878L46.5928 12.499C46.6068 12.3777 46.6558 12.2797 46.7398 12.205C46.8238 12.1304 46.9428 12.093 47.0968 12.093C47.1761 12.093 47.2741 12.107 47.3908 12.135C47.5075 12.1584 47.6475 12.17 47.8108 12.17C48.0395 12.17 48.2378 12.1397 48.4058 12.079C48.5785 12.0137 48.7208 11.9087 48.8328 11.764C48.9448 11.6147 49.0288 11.421 49.0848 11.183C49.1408 10.945 49.1688 10.651 49.1688 10.301V3.74902H51.5348V10.252Z" fill="white"/>
<path d="M56.3004 6.57702C56.851 6.57702 57.3527 6.66336 57.8054 6.83602C58.258 7.00869 58.6454 7.25602 58.9674 7.57802C59.294 7.90002 59.546 8.29202 59.7234 8.75402C59.9054 9.21136 59.9964 9.72702 59.9964 10.301C59.9964 10.8797 59.9054 11.4024 59.7234 11.869C59.546 12.331 59.294 12.7254 58.9674 13.052C58.6454 13.374 58.258 13.6237 57.8054 13.801C57.3527 13.9737 56.851 14.06 56.3004 14.06C55.745 14.06 55.2387 13.9737 54.7814 13.801C54.3287 13.6237 53.9367 13.374 53.6054 13.052C53.2787 12.7254 53.0244 12.331 52.8424 11.869C52.665 11.4024 52.5764 10.8797 52.5764 10.301C52.5764 9.72702 52.665 9.21136 52.8424 8.75402C53.0244 8.29202 53.2787 7.90002 53.6054 7.57802C53.9367 7.25602 54.3287 7.00869 54.7814 6.83602C55.2387 6.66336 55.745 6.57702 56.3004 6.57702ZM56.3004 12.45C56.7997 12.45 57.166 12.275 57.3994 11.925C57.6374 11.5704 57.7564 11.0337 57.7564 10.315C57.7564 9.59636 57.6374 9.06202 57.3994 8.71202C57.166 8.36202 56.7997 8.18702 56.3004 8.18702C55.787 8.18702 55.4114 8.36202 55.1734 8.71202C54.9354 9.06202 54.8164 9.59636 54.8164 10.315C54.8164 11.0337 54.9354 11.5704 55.1734 11.925C55.4114 12.275 55.787 12.45 56.3004 12.45Z" fill="white"/>
<path d="M65.7021 8.27802C65.6461 8.36669 65.5855 8.42969 65.5201 8.46702C65.4595 8.50436 65.3801 8.52302 65.2821 8.52302C65.1795 8.52302 65.0768 8.50202 64.9741 8.46002C64.8715 8.41336 64.7595 8.36436 64.6381 8.31302C64.5215 8.26169 64.3885 8.21502 64.2391 8.17302C64.0898 8.12636 63.9195 8.10302 63.7281 8.10302C63.4528 8.10302 63.2405 8.15669 63.0911 8.26402C62.9465 8.36669 62.8741 8.51136 62.8741 8.69802C62.8741 8.83336 62.9208 8.94536 63.0141 9.03402C63.1121 9.12269 63.2405 9.20202 63.3991 9.27202C63.5578 9.33736 63.7375 9.40036 63.9381 9.46102C64.1388 9.52169 64.3441 9.58936 64.5541 9.66402C64.7641 9.73869 64.9695 9.82736 65.1701 9.93002C65.3708 10.028 65.5505 10.1517 65.7091 10.301C65.8678 10.4457 65.9938 10.623 66.0871 10.833C66.1851 11.043 66.2341 11.295 66.2341 11.589C66.2341 11.9484 66.1688 12.2797 66.0381 12.583C65.9075 12.8864 65.7115 13.1477 65.4501 13.367C65.1935 13.5864 64.8738 13.7567 64.4911 13.878C64.1131 13.9994 63.6768 14.06 63.1821 14.06C62.9348 14.06 62.6875 14.0367 62.4401 13.99C62.1928 13.9434 61.9525 13.8804 61.7191 13.801C61.4905 13.7217 61.2781 13.6284 61.0821 13.521C60.8861 13.409 60.7181 13.29 60.5781 13.164L61.0821 12.366C61.1381 12.2727 61.2081 12.2004 61.2921 12.149C61.3808 12.093 61.4928 12.065 61.6281 12.065C61.7541 12.065 61.8661 12.093 61.9641 12.149C62.0668 12.205 62.1765 12.2657 62.2931 12.331C62.4098 12.3964 62.5451 12.457 62.6991 12.513C62.8578 12.569 63.0561 12.597 63.2941 12.597C63.4621 12.597 63.6045 12.5807 63.7211 12.548C63.8378 12.5107 63.9311 12.4617 64.0011 12.401C64.0711 12.3404 64.1225 12.2727 64.1551 12.198C64.1878 12.1234 64.2041 12.0464 64.2041 11.967C64.2041 11.8224 64.1551 11.7034 64.0571 11.61C63.9591 11.5167 63.8308 11.4374 63.6721 11.372C63.5135 11.302 63.3315 11.239 63.1261 11.183C62.9255 11.1224 62.7201 11.0547 62.5101 10.98C62.3001 10.9054 62.0925 10.8167 61.8871 10.714C61.6865 10.6067 61.5068 10.4737 61.3481 10.315C61.1895 10.1517 61.0611 9.95336 60.9631 9.72002C60.8651 9.48669 60.8161 9.20436 60.8161 8.87302C60.8161 8.56502 60.8745 8.27336 60.9911 7.99802C61.1125 7.71802 61.2921 7.47302 61.5301 7.26302C61.7681 7.05302 62.0668 6.88736 62.4261 6.76602C62.7855 6.64002 63.2055 6.57702 63.6861 6.57702C63.9475 6.57702 64.1995 6.60036 64.4421 6.64702C64.6895 6.69369 64.9205 6.75902 65.1351 6.84302C65.3498 6.92702 65.5458 7.02736 65.7231 7.14402C65.9005 7.25602 66.0568 7.37969 66.1921 7.51502L65.7021 8.27802Z" fill="white"/>
<path d="M71.8385 9.44702C71.8385 9.27436 71.8152 9.10636 71.7685 8.94302C71.7265 8.77969 71.6542 8.63502 71.5515 8.50902C71.4535 8.37836 71.3229 8.27336 71.1595 8.19402C70.9962 8.11469 70.7978 8.07502 70.5645 8.07502C70.1538 8.07502 69.8318 8.19402 69.5985 8.43202C69.3652 8.66536 69.2112 9.00369 69.1365 9.44702H71.8385ZM69.1085 10.707C69.1785 11.3137 69.3628 11.7547 69.6615 12.03C69.9602 12.3007 70.3452 12.436 70.8165 12.436C71.0685 12.436 71.2855 12.4057 71.4675 12.345C71.6495 12.2844 71.8105 12.2167 71.9505 12.142C72.0952 12.0674 72.2258 11.9997 72.3425 11.939C72.4638 11.8784 72.5898 11.848 72.7205 11.848C72.8932 11.848 73.0238 11.911 73.1125 12.037L73.7425 12.814C73.5185 13.0707 73.2759 13.2807 73.0145 13.444C72.7579 13.6027 72.4918 13.7287 72.2165 13.822C71.9458 13.9107 71.6728 13.9714 71.3975 14.004C71.1268 14.0414 70.8678 14.06 70.6205 14.06C70.1118 14.06 69.6335 13.9784 69.1855 13.815C68.7422 13.647 68.3525 13.3997 68.0165 13.073C67.6852 12.7464 67.4215 12.3404 67.2255 11.855C67.0342 11.3697 66.9385 10.805 66.9385 10.161C66.9385 9.67569 67.0202 9.21602 67.1835 8.78202C67.3515 8.34802 67.5895 7.96769 67.8975 7.64102C68.2102 7.31436 68.5859 7.05536 69.0245 6.86402C69.4679 6.67269 69.9672 6.57702 70.5225 6.57702C71.0032 6.57702 71.4418 6.65169 71.8385 6.80102C72.2398 6.95036 72.5828 7.16736 72.8675 7.45202C73.1568 7.73669 73.3808 8.08669 73.5395 8.50202C73.7028 8.91269 73.7845 9.37936 73.7845 9.90202C73.7845 10.0654 73.7775 10.1984 73.7635 10.301C73.7495 10.4037 73.7238 10.4854 73.6865 10.546C73.6492 10.6067 73.5978 10.6487 73.5325 10.672C73.4718 10.6954 73.3925 10.707 73.2945 10.707H69.1085Z" fill="white"/>
<path d="M78.2164 6.57702C78.7671 6.57702 79.2687 6.66336 79.7214 6.83602C80.1741 7.00869 80.5614 7.25602 80.8834 7.57802C81.2101 7.90002 81.4621 8.29202 81.6394 8.75402C81.8214 9.21136 81.9124 9.72702 81.9124 10.301C81.9124 10.8797 81.8214 11.4024 81.6394 11.869C81.4621 12.331 81.2101 12.7254 80.8834 13.052C80.5614 13.374 80.1741 13.6237 79.7214 13.801C79.2687 13.9737 78.7671 14.06 78.2164 14.06C77.6611 14.06 77.1547 13.9737 76.6974 13.801C76.2447 13.6237 75.8527 13.374 75.5214 13.052C75.1947 12.7254 74.9404 12.331 74.7584 11.869C74.5811 11.4024 74.4924 10.8797 74.4924 10.301C74.4924 9.72702 74.5811 9.21136 74.7584 8.75402C74.9404 8.29202 75.1947 7.90002 75.5214 7.57802C75.8527 7.25602 76.2447 7.00869 76.6974 6.83602C77.1547 6.66336 77.6611 6.57702 78.2164 6.57702ZM78.2164 12.45C78.7157 12.45 79.0821 12.275 79.3154 11.925C79.5534 11.5704 79.6724 11.0337 79.6724 10.315C79.6724 9.59636 79.5534 9.06202 79.3154 8.71202C79.0821 8.36202 78.7157 8.18702 78.2164 8.18702C77.7031 8.18702 77.3274 8.36202 77.0894 8.71202C76.8514 9.06202 76.7324 9.59636 76.7324 10.315C76.7324 11.0337 76.8514 11.5704 77.0894 11.925C77.3274 12.275 77.7031 12.45 78.2164 12.45Z" fill="white"/>
<path d="M85.0072 7.47302C85.1472 7.34236 85.2918 7.22102 85.4412 7.10902C85.5905 6.99702 85.7492 6.90369 85.9172 6.82902C86.0898 6.74969 86.2742 6.68902 86.4702 6.64702C86.6708 6.60036 86.8878 6.57702 87.1212 6.57702C87.5178 6.57702 87.8678 6.64702 88.1712 6.78702C88.4792 6.92236 88.7382 7.11369 88.9482 7.36102C89.1582 7.60369 89.3168 7.89536 89.4242 8.23602C89.5315 8.57202 89.5852 8.93836 89.5852 9.33502V13.948H87.4152V9.33502C87.4152 8.98036 87.3335 8.70502 87.1702 8.50902C87.0068 8.30836 86.7665 8.20802 86.4492 8.20802C86.2112 8.20802 85.9872 8.25936 85.7772 8.36202C85.5718 8.46002 85.3712 8.59536 85.1752 8.76802V13.948H83.0052V6.68902H84.3492C84.6198 6.68902 84.7972 6.81036 84.8812 7.05302L85.0072 7.47302Z" fill="white"/>
<path d="M49.6938 19.569V21.949H52.8998V23.699H49.6938V26.128H53.8798V27.948H47.3138V17.749H53.8798V19.569H49.6938Z" fill="white"/>
<path d="M62.0312 27.948H59.9452C59.7912 27.948 59.6652 27.9107 59.5672 27.836C59.4739 27.7614 59.3992 27.6727 59.3432 27.57L58.0482 25.344C58.0249 25.4234 57.9969 25.498 57.9642 25.568C57.9315 25.638 57.8965 25.7034 57.8592 25.764L56.7952 27.57C56.7299 27.6634 56.6529 27.7497 56.5642 27.829C56.4755 27.9084 56.3612 27.948 56.2212 27.948H54.2892L56.7252 24.196L54.3872 20.689H56.4732C56.6272 20.689 56.7392 20.71 56.8092 20.752C56.8839 20.7894 56.9492 20.8547 57.0052 20.948L58.3002 23.097C58.3282 23.013 58.3632 22.9314 58.4052 22.852C58.4472 22.768 58.4939 22.684 58.5452 22.6L59.4692 20.983C59.5345 20.8804 59.6022 20.8057 59.6722 20.759C59.7469 20.7124 59.8379 20.689 59.9452 20.689H61.9332L59.5952 24.098L62.0312 27.948Z" fill="white"/>
<path d="M64.8724 25.974C65.0358 26.1514 65.2131 26.2774 65.4044 26.352C65.5958 26.4267 65.7964 26.464 66.0064 26.464C66.2071 26.464 66.3914 26.4244 66.5594 26.345C66.7274 26.2657 66.8721 26.1397 66.9934 25.967C67.1194 25.7897 67.2174 25.561 67.2874 25.281C67.3574 25.001 67.3924 24.6604 67.3924 24.259C67.3924 23.8764 67.3644 23.5544 67.3084 23.293C67.2524 23.0317 67.1731 22.8217 67.0704 22.663C66.9724 22.4997 66.8534 22.383 66.7134 22.313C66.5734 22.243 66.4171 22.208 66.2444 22.208C65.9271 22.208 65.6658 22.2664 65.4604 22.383C65.2551 22.4997 65.0591 22.67 64.8724 22.894V25.974ZM64.7394 21.585C65.0241 21.2817 65.3461 21.0344 65.7054 20.843C66.0694 20.647 66.5011 20.549 67.0004 20.549C67.3784 20.549 67.7284 20.633 68.0504 20.801C68.3724 20.969 68.6501 21.2117 68.8834 21.529C69.1168 21.8464 69.2988 22.236 69.4294 22.698C69.5648 23.1554 69.6324 23.6757 69.6324 24.259C69.6324 24.805 69.5554 25.309 69.4014 25.771C69.2521 26.233 69.0398 26.6344 68.7644 26.975C68.4938 27.3157 68.1671 27.5817 67.7844 27.773C67.4064 27.9644 66.9864 28.06 66.5244 28.06C66.1464 28.06 65.8291 28.0064 65.5724 27.899C65.3158 27.7917 65.0824 27.647 64.8724 27.465V30.251H62.7024V20.689H64.0464C64.3171 20.689 64.4944 20.8104 64.5784 21.053L64.7394 21.585Z" fill="white"/>
<path d="M72.9252 17.469V27.948H70.7552V17.469H72.9252Z" fill="white"/>
<path d="M77.7379 20.577C78.2885 20.577 78.7902 20.6634 79.2429 20.836C79.6955 21.0087 80.0829 21.256 80.4049 21.578C80.7315 21.9 80.9835 22.292 81.1609 22.754C81.3429 23.2114 81.4339 23.727 81.4339 24.301C81.4339 24.8797 81.3429 25.4024 81.1609 25.869C80.9835 26.331 80.7315 26.7254 80.4049 27.052C80.0829 27.374 79.6955 27.6237 79.2429 27.801C78.7902 27.9737 78.2885 28.06 77.7379 28.06C77.1825 28.06 76.6762 27.9737 76.2189 27.801C75.7662 27.6237 75.3742 27.374 75.0429 27.052C74.7162 26.7254 74.4619 26.331 74.2799 25.869C74.1025 25.4024 74.0139 24.8797 74.0139 24.301C74.0139 23.727 74.1025 23.2114 74.2799 22.754C74.4619 22.292 74.7162 21.9 75.0429 21.578C75.3742 21.256 75.7662 21.0087 76.2189 20.836C76.6762 20.6634 77.1825 20.577 77.7379 20.577ZM77.7379 26.45C78.2372 26.45 78.6035 26.275 78.8369 25.925C79.0749 25.5704 79.1939 25.0337 79.1939 24.315C79.1939 23.5964 79.0749 23.062 78.8369 22.712C78.6035 22.362 78.2372 22.187 77.7379 22.187C77.2245 22.187 76.8489 22.362 76.6109 22.712C76.3729 23.062 76.2539 23.5964 76.2539 24.315C76.2539 25.0337 76.3729 25.5704 76.6109 25.925C76.8489 26.275 77.2245 26.45 77.7379 26.45Z" fill="white"/>
<path d="M84.5566 21.809C84.7806 21.417 85.0373 21.109 85.3266 20.885C85.6206 20.661 85.9566 20.549 86.3346 20.549C86.6613 20.549 86.9273 20.626 87.1326 20.78L86.9926 22.376C86.9693 22.4787 86.9296 22.5487 86.8736 22.586C86.8223 22.6234 86.75 22.642 86.6566 22.642C86.6193 22.642 86.5703 22.6397 86.5096 22.635C86.449 22.6304 86.386 22.6257 86.3206 22.621C86.2553 22.6117 86.1876 22.6047 86.1176 22.6C86.0523 22.5907 85.9916 22.586 85.9356 22.586C85.6183 22.586 85.364 22.67 85.1726 22.838C84.986 23.006 84.8273 23.2394 84.6966 23.538V27.948H82.5266V20.689H83.8146C83.922 20.689 84.0106 20.6984 84.0806 20.717C84.1553 20.7357 84.216 20.766 84.2626 20.808C84.314 20.8454 84.3513 20.8967 84.3746 20.962C84.4026 21.0274 84.426 21.1067 84.4446 21.2L84.5566 21.809Z" fill="white"/>
<path d="M92.2643 23.447C92.2643 23.2744 92.241 23.1064 92.1943 22.943C92.1523 22.7797 92.08 22.635 91.9773 22.509C91.8793 22.3784 91.7486 22.2734 91.5853 22.194C91.422 22.1147 91.2236 22.075 90.9903 22.075C90.5796 22.075 90.2576 22.194 90.0243 22.432C89.791 22.6654 89.637 23.0037 89.5623 23.447H92.2643ZM89.5343 24.707C89.6043 25.3137 89.7886 25.7547 90.0873 26.03C90.386 26.3007 90.771 26.436 91.2423 26.436C91.4943 26.436 91.7113 26.4057 91.8933 26.345C92.0753 26.2844 92.2363 26.2167 92.3763 26.142C92.521 26.0674 92.6516 25.9997 92.7683 25.939C92.8896 25.8784 93.0156 25.848 93.1463 25.848C93.319 25.848 93.4496 25.911 93.5383 26.037L94.1683 26.814C93.9443 27.0707 93.7016 27.2807 93.4403 27.444C93.1836 27.6027 92.9176 27.7287 92.6423 27.822C92.3716 27.9107 92.0986 27.9714 91.8233 28.004C91.5526 28.0414 91.2936 28.06 91.0463 28.06C90.5376 28.06 90.0593 27.9784 89.6113 27.815C89.168 27.647 88.7783 27.3997 88.4423 27.073C88.111 26.7464 87.8473 26.3404 87.6513 25.855C87.46 25.3697 87.3643 24.805 87.3643 24.161C87.3643 23.6757 87.446 23.216 87.6093 22.782C87.7773 22.348 88.0153 21.9677 88.3233 21.641C88.636 21.3144 89.0116 21.0554 89.4503 20.864C89.8936 20.6727 90.393 20.577 90.9483 20.577C91.429 20.577 91.8676 20.6517 92.2643 20.801C92.6656 20.9504 93.0086 21.1674 93.2933 21.452C93.5826 21.7367 93.8066 22.0867 93.9653 22.502C94.1286 22.9127 94.2103 23.3794 94.2103 23.902C94.2103 24.0654 94.2033 24.1984 94.1893 24.301C94.1753 24.4037 94.1496 24.4854 94.1123 24.546C94.075 24.6067 94.0236 24.6487 93.9583 24.672C93.8976 24.6954 93.8183 24.707 93.7203 24.707H89.5343Z" fill="white"/>
<path d="M97.3262 21.809C97.5502 21.417 97.8068 21.109 98.0962 20.885C98.3902 20.661 98.7262 20.549 99.1042 20.549C99.4308 20.549 99.6968 20.626 99.9022 20.78L99.7622 22.376C99.7388 22.4787 99.6992 22.5487 99.6432 22.586C99.5918 22.6234 99.5195 22.642 99.4262 22.642C99.3888 22.642 99.3398 22.6397 99.2792 22.635C99.2185 22.6304 99.1555 22.6257 99.0902 22.621C99.0248 22.6117 98.9572 22.6047 98.8872 22.6C98.8218 22.5907 98.7612 22.586 98.7052 22.586C98.3878 22.586 98.1335 22.67 97.9422 22.838C97.7555 23.006 97.5968 23.2394 97.4662 23.538V27.948H95.2962V20.689H96.5842C96.6915 20.689 96.7802 20.6984 96.8502 20.717C96.9248 20.7357 96.9855 20.766 97.0322 20.808C97.0835 20.8454 97.1208 20.8967 97.1442 20.962C97.1722 21.0274 97.1955 21.1067 97.2142 21.2L97.3262 21.809Z" fill="white"/>
<defs>
<filter id="filter0_d_774_6626" x="-0.826856" y="-0.8271" width="35.6537" height="35.654" filterUnits="userSpaceOnUse" colorInterpolationFilters="sRGB">
<feFlood flood-opacity="0" result="BackgroundImageFix"/>
<feColorMatrix in="SourceAlpha" type="matrix" values="0 0 0 0 0 0 0 0 0 0 0 0 0 0 0 0 0 0 127 0" result="hardAlpha"/>
<feOffset/>
<feGaussianBlur stdDeviation="3.4"/>
<feComposite in2="hardAlpha" operator="out"/>
<feColorMatrix type="matrix" values="0 0 0 0 0 0 0 0 0 0 0 0 0 0 0 0 0 0 0.25 0"/>
<feBlend mode="normal" in2="BackgroundImageFix" result="effect1_dropShadow_774_6626"/>
<feBlend mode="normal" in="SourceGraphic" in2="effect1_dropShadow_774_6626" result="shape"/>
</filter>
<filter id="filter1_d_774_6626" x="5.59017" y="5.59017" width="22.8197" height="22.8199" filterUnits="userSpaceOnUse" colorInterpolationFilters="sRGB">
<feFlood flood-opacity="0" result="BackgroundImageFix"/>
<feColorMatrix in="SourceAlpha" type="matrix" values="0 0 0 0 0 0 0 0 0 0 0 0 0 0 0 0 0 0 127 0" result="hardAlpha"/>
<feOffset/>
<feGaussianBlur stdDeviation="2.83333"/>
<feComposite in2="hardAlpha" operator="out"/>
<feColorMatrix type="matrix" values="0 0 0 0 0 0 0 0 0 0 0 0 0 0 0 0 0 0 0.25 0"/>
<feBlend mode="normal" in2="BackgroundImageFix" result="effect1_dropShadow_774_6626"/>
<feBlend mode="normal" in="SourceGraphic" in2="effect1_dropShadow_774_6626" result="shape"/>
</filter>
<clipPath id="clip0_774_6626">
<rect width="34" height="34" fill="white"/>
</clipPath>
</defs>
</svg>
