<svg width="14" height="14" viewBox="0 0 14 14" fill="none" xmlns="http://www.w3.org/2000/svg">
<path d="M7 2.5V1M7 2.5C6.60218 2.5 6.22064 2.65804 5.93934 2.93934C5.65804 3.22064 5.5 3.60218 5.5 4C5.5 4.39782 5.65804 4.77936 5.93934 5.06066C6.22064 5.34196 6.60218 5.5 7 5.5M7 2.5C7.39782 2.5 7.77936 2.65804 8.06066 2.93934C8.34196 3.22064 8.5 3.60218 8.5 4C8.5 4.39782 8.34196 4.77936 8.06066 5.06066C7.77936 5.34196 7.39782 5.5 7 5.5M7 5.5V13M2.5 11.5C2.89782 11.5 3.27936 11.342 3.56066 11.0607C3.84196 10.7794 4 10.3978 4 10C4 9.60218 3.84196 9.22064 3.56066 8.93934C3.27936 8.65804 2.89782 8.5 2.5 8.5M2.5 11.5C2.10218 11.5 1.72064 11.342 1.43934 11.0607C1.15804 10.7794 1 10.3978 1 10C1 9.60218 1.15804 9.22064 1.43934 8.93934C1.72064 8.65804 2.10218 8.5 2.5 8.5M2.5 11.5V13M2.5 8.5V1M11.5 11.5C11.8978 11.5 12.2794 11.342 12.5607 11.0607C12.842 10.7794 13 10.3978 13 10C13 9.60218 12.842 9.22064 12.5607 8.93934C12.2794 8.65804 11.8978 8.5 11.5 8.5M11.5 11.5C11.1022 11.5 10.7206 11.342 10.4393 11.0607C10.158 10.7794 10 10.3978 10 10C10 9.60218 10.158 9.22064 10.4393 8.93934C10.7206 8.65804 11.1022 8.5 11.5 8.5M11.5 11.5V13M11.5 8.5V1" stroke="#283649" strokeLinecap="round" strokeLinejoin="round"/>
</svg>
