<svg width="19" height="18" viewBox="0 0 19 18" fill="none" xmlns="http://www.w3.org/2000/svg">
<path d="M6.94995 9H11.45M6.94995 12L11.45 12M12.95 15.75L5.44995 15.75C5.05213 15.75 4.6706 15.592 4.38929 15.3107C4.10799 15.0294 3.94995 14.6478 3.94995 14.25L3.94995 3.75C3.94995 3.35218 4.10799 2.97064 4.38929 2.68934C4.6706 2.40804 5.05213 2.25 5.44995 2.25L9.63945 2.25C9.83835 2.25004 10.0291 2.32909 10.1697 2.46975L14.2302 6.53025C14.3709 6.67087 14.4499 6.8616 14.45 7.0605L14.45 14.25C14.45 14.6478 14.2919 15.0294 14.0106 15.3107C13.7293 15.592 13.3478 15.75 12.95 15.75Z" stroke="#DDE8F8" strokeWidth="2" strokeLinecap="round" strokeLinejoin="round"/>
</svg>
