<svg width="16" height="16" viewBox="0 0 16 16" fill="none" xmlns="http://www.w3.org/2000/svg">
<path d="M7.33333 10.6667L4.66667 8.00008M4.66667 8.00008L7.33333 5.33341M4.66667 8.00008H14M10.6667 10.6667V11.3334C10.6667 11.8638 10.456 12.3726 10.0809 12.7476C9.70581 13.1227 9.1971 13.3334 8.66667 13.3334H4C3.46957 13.3334 2.96086 13.1227 2.58579 12.7476C2.21071 12.3726 2 11.8638 2 11.3334V4.66675C2 4.13631 2.21071 3.62761 2.58579 3.25253C2.96086 2.87746 3.46957 2.66675 4 2.66675H8.66667C9.1971 2.66675 9.70581 2.87746 10.0809 3.25253C10.456 3.62761 10.6667 4.13631 10.6667 4.66675V5.33341" stroke="#D5485A" strokeWidth="1.5" strokeLinecap="round" strokeLinejoin="round"/>
</svg>
