<svg width="18" height="18" viewBox="0 0 18 18" fill="none" xmlns="http://www.w3.org/2000/svg">
    <path d="M9.00015 15.7502C10.5915 15.7502 12.1177 15.118 13.2429 13.9928C13.8009 13.4362 14.2434 12.7749 14.5449 12.0467C14.8465 11.3186 15.0012 10.5381 15.0002 9.75C15.0011 8.96185 14.8463 8.18129 14.5446 7.45317C14.2429 6.72506 13.8003 6.06375 13.2422 5.50725C12.0677 4.33275 10.5002 3.75 8.98965 2.25C7.12515 3.75 6.75015 6 6.75015 7.5C5.25015 6.75 4.7574 5.50725 4.7574 5.50725C3.63216 6.6325 3 8.15866 3 9.75C3 11.3413 3.63216 12.8675 4.7574 13.9928C5.88265 15.118 7.40881 15.7502 9.00015 15.7502Z" stroke="#D5485A" stroke-width="1.5" stroke-linecap="round" stroke-linejoin="round"/>
    <path d="M8.34577 12.6526C7.99219 12.5451 7.67054 12.3521 7.40925 12.0907C6.96975 11.652 6.75 11.076 6.75 10.5H8.25L9.01125 8.25C9.38082 8.25177 9.74426 8.34455 10.0695 8.52014C10.3946 8.69573 10.6716 8.94871 10.8758 9.25674C11.08 9.56478 11.2052 9.91836 11.2403 10.2863C11.2754 10.6542 11.2193 11.025 11.0771 11.3661C10.9348 11.7072 10.7107 12.008 10.4246 12.2419C10.1384 12.4758 9.7991 12.6357 9.43654 12.7073C9.07397 12.7789 8.69935 12.7602 8.34577 12.6526Z" stroke="#D5485A" stroke-width="2" stroke-linecap="round" stroke-linejoin="round"/>
</svg>
