<svg width="32" height="32" viewBox="0 0 32 32" fill="none" xmlns="http://www.w3.org/2000/svg">
<path fill-rule="evenodd" clip-rule="evenodd" d="M16.0002 28.8C19.395 28.8 22.6507 27.4514 25.0512 25.051C27.4516 22.6505 28.8002 19.3948 28.8002 16C28.8002 12.6052 27.4516 9.34951 25.0512 6.94905C22.6507 4.54858 19.395 3.20001 16.0002 3.20001C12.6054 3.20001 9.34969 4.54858 6.94923 6.94905C4.54876 9.34951 3.2002 12.6052 3.2002 16C3.2002 19.3948 4.54876 22.6505 6.94923 25.051C9.34969 27.4514 12.6054 28.8 16.0002 28.8ZM6.93139 12.8432C7.52546 11.142 8.58545 9.64178 9.99059 8.51361C10.4194 9.16801 11.1586 9.60001 12.0002 9.60001C12.6367 9.60001 13.2472 9.85287 13.6973 10.303C14.1473 10.753 14.4002 11.3635 14.4002 12V12.8C14.4002 13.6487 14.7373 14.4626 15.3375 15.0628C15.9376 15.6629 16.7515 16 17.6002 16C18.4489 16 19.2628 15.6629 19.8629 15.0628C20.4631 14.4626 20.8002 13.6487 20.8002 12.8C20.7999 12.0839 21.0399 11.3884 21.4817 10.8248C21.9235 10.2611 22.5415 9.86201 23.237 9.69121C24.7639 11.4379 25.6038 13.68 25.6002 16C25.6002 16.544 25.5554 17.08 25.4674 17.6H24.0002C23.1515 17.6 22.3376 17.9372 21.7375 18.5373C21.1373 19.1374 20.8002 19.9513 20.8002 20.8V24.3152C19.3415 25.1592 17.6855 25.6025 16.0002 25.6V22.4C16.0002 21.5513 15.6631 20.7374 15.0629 20.1373C14.4628 19.5372 13.6489 19.2 12.8002 19.2C11.9515 19.2 11.1376 18.8629 10.5375 18.2628C9.93734 17.6626 9.60019 16.8487 9.60019 16C9.60048 15.2432 9.33253 14.5108 8.84392 13.9329C8.35532 13.3549 7.6777 12.9688 6.93139 12.8432Z" fill="#D5485A"/>
</svg>
