<svg width="18" height="18" viewBox="0 0 18 18" fill="none" xmlns="http://www.w3.org/2000/svg">
<path fill-rule="evenodd" clip-rule="evenodd" d="M11.4364 4.76369C11.6051 4.93247 11.6999 5.16134 11.6999 5.39999C11.6999 5.63864 11.6051 5.86752 11.4364 6.03629L8.4727 8.99999L11.4364 11.9637C11.6003 12.1334 11.6911 12.3608 11.689 12.5968C11.687 12.8327 11.5923 13.0585 11.4254 13.2253C11.2586 13.3922 11.0328 13.4868 10.7969 13.4889C10.5609 13.4909 10.3335 13.4002 10.1638 13.2363L6.5638 9.63629C6.39508 9.46752 6.30029 9.23864 6.30029 8.99999C6.30029 8.76134 6.39508 8.53247 6.5638 8.36369L10.1638 4.76369C10.3326 4.59497 10.5615 4.50018 10.8001 4.50018C11.0387 4.50018 11.2676 4.59497 11.4364 4.76369Z" fill="#D5485A"/>
</svg>
