<svg width="100" height="34" viewBox="0 0 100 34" fill="none" xmlns="http://www.w3.org/2000/svg">
<g clip-path="url(#clip0_47_2315)">
<path d="M0 17C0 26.3888 7.61115 34 17 34V0C7.61115 0 0 7.61115 0 17Z" fill="#1D4C90"/>
<path d="M34 17C34 7.61115 26.3888 8.20799e-07 17 0V34C26.3888 34 34 26.3888 34 17Z" fill="#D5485A"/>
<g filter="url(#filter0_d_47_2315)">
<path d="M5.97302 16.9999C5.97302 23.0901 10.91 28.027 17 28.027V5.9729C10.91 5.9729 5.97302 10.9099 5.97302 16.9999Z" fill="#D5485A"/>
<path d="M28.027 16.9999C28.027 10.9099 23.0901 5.9729 17 5.9729V28.027C23.0901 28.027 28.027 23.0901 28.027 16.9999Z" fill="#1D4C90"/>
</g>
<g filter="url(#filter1_d_47_2315)">
<path d="M11.2567 17.0001C11.2567 20.172 13.8281 22.7433 17 22.7433V11.2568C13.8281 11.2568 11.2567 13.8282 11.2567 17.0001Z" fill="#1D4C90"/>
<path d="M22.7432 17.0001C22.7432 13.8282 20.1719 11.2568 17 11.2568V22.7433C20.1719 22.7433 22.7432 20.172 22.7432 17.0001Z" fill="#D5485A"/>
</g>
</g>
<path d="M51.5347 10.252C51.5347 10.8214 51.4623 11.3394 51.3177 11.806C51.1777 12.2727 50.963 12.674 50.6737 13.01C50.389 13.3414 50.0297 13.6004 49.5957 13.787C49.1617 13.969 48.6507 14.06 48.0627 14.06C47.7967 14.06 47.533 14.046 47.2717 14.018C47.015 13.99 46.7467 13.9434 46.4667 13.878L46.5927 12.499C46.6067 12.3777 46.6557 12.2797 46.7397 12.205C46.8237 12.1304 46.9427 12.093 47.0967 12.093C47.176 12.093 47.274 12.107 47.3907 12.135C47.5073 12.1584 47.6473 12.17 47.8107 12.17C48.0393 12.17 48.2377 12.1397 48.4057 12.079C48.5783 12.0137 48.7207 11.9087 48.8327 11.764C48.9447 11.6147 49.0287 11.421 49.0847 11.183C49.1407 10.945 49.1687 10.651 49.1687 10.301V3.74902H51.5347V10.252Z" fill="#1D4C90"/>
<path d="M56.3003 6.57702C56.8509 6.57702 57.3526 6.66336 57.8053 6.83602C58.2579 7.00869 58.6453 7.25602 58.9673 7.57802C59.2939 7.90002 59.5459 8.29202 59.7233 8.75402C59.9053 9.21136 59.9963 9.72702 59.9963 10.301C59.9963 10.8797 59.9053 11.4024 59.7233 11.869C59.5459 12.331 59.2939 12.7254 58.9673 13.052C58.6453 13.374 58.2579 13.6237 57.8053 13.801C57.3526 13.9737 56.8509 14.06 56.3003 14.06C55.7449 14.06 55.2386 13.9737 54.7813 13.801C54.3286 13.6237 53.9366 13.374 53.6053 13.052C53.2786 12.7254 53.0243 12.331 52.8423 11.869C52.6649 11.4024 52.5763 10.8797 52.5763 10.301C52.5763 9.72702 52.6649 9.21136 52.8423 8.75402C53.0243 8.29202 53.2786 7.90002 53.6053 7.57802C53.9366 7.25602 54.3286 7.00869 54.7813 6.83602C55.2386 6.66336 55.7449 6.57702 56.3003 6.57702ZM56.3003 12.45C56.7996 12.45 57.1659 12.275 57.3993 11.925C57.6373 11.5704 57.7563 11.0337 57.7563 10.315C57.7563 9.59636 57.6373 9.06202 57.3993 8.71202C57.1659 8.36202 56.7996 8.18702 56.3003 8.18702C55.7869 8.18702 55.4113 8.36202 55.1733 8.71202C54.9353 9.06202 54.8163 9.59636 54.8163 10.315C54.8163 11.0337 54.9353 11.5704 55.1733 11.925C55.4113 12.275 55.7869 12.45 56.3003 12.45Z" fill="#1D4C90"/>
<path d="M65.702 8.27802C65.646 8.36669 65.5854 8.42969 65.52 8.46702C65.4594 8.50436 65.38 8.52302 65.282 8.52302C65.1794 8.52302 65.0767 8.50202 64.974 8.46002C64.8714 8.41336 64.7594 8.36436 64.638 8.31302C64.5214 8.26169 64.3884 8.21502 64.239 8.17302C64.0897 8.12636 63.9194 8.10302 63.728 8.10302C63.4527 8.10302 63.2404 8.15669 63.091 8.26402C62.9464 8.36669 62.874 8.51136 62.874 8.69802C62.874 8.83336 62.9207 8.94536 63.014 9.03402C63.112 9.12269 63.2404 9.20202 63.399 9.27202C63.5577 9.33736 63.7374 9.40036 63.938 9.46102C64.1387 9.52169 64.344 9.58936 64.554 9.66402C64.764 9.73869 64.9694 9.82736 65.17 9.93002C65.3707 10.028 65.5504 10.1517 65.709 10.301C65.8677 10.4457 65.9937 10.623 66.087 10.833C66.185 11.043 66.234 11.295 66.234 11.589C66.234 11.9484 66.1687 12.2797 66.038 12.583C65.9074 12.8864 65.7114 13.1477 65.45 13.367C65.1934 13.5864 64.8737 13.7567 64.491 13.878C64.113 13.9994 63.6767 14.06 63.182 14.06C62.9347 14.06 62.6874 14.0367 62.44 13.99C62.1927 13.9434 61.9524 13.8804 61.719 13.801C61.4904 13.7217 61.278 13.6284 61.082 13.521C60.886 13.409 60.718 13.29 60.578 13.164L61.082 12.366C61.138 12.2727 61.208 12.2004 61.292 12.149C61.3807 12.093 61.4927 12.065 61.628 12.065C61.754 12.065 61.866 12.093 61.964 12.149C62.0667 12.205 62.1764 12.2657 62.293 12.331C62.4097 12.3964 62.545 12.457 62.699 12.513C62.8577 12.569 63.056 12.597 63.294 12.597C63.462 12.597 63.6044 12.5807 63.721 12.548C63.8377 12.5107 63.931 12.4617 64.001 12.401C64.071 12.3404 64.1224 12.2727 64.155 12.198C64.1877 12.1234 64.204 12.0464 64.204 11.967C64.204 11.8224 64.155 11.7034 64.057 11.61C63.959 11.5167 63.8307 11.4374 63.672 11.372C63.5134 11.302 63.3314 11.239 63.126 11.183C62.9254 11.1224 62.72 11.0547 62.51 10.98C62.3 10.9054 62.0924 10.8167 61.887 10.714C61.6864 10.6067 61.5067 10.4737 61.348 10.315C61.1894 10.1517 61.061 9.95336 60.963 9.72002C60.865 9.48669 60.816 9.20436 60.816 8.87302C60.816 8.56502 60.8744 8.27336 60.991 7.99802C61.1124 7.71802 61.292 7.47302 61.53 7.26302C61.768 7.05302 62.0667 6.88736 62.426 6.76602C62.7854 6.64002 63.2054 6.57702 63.686 6.57702C63.9474 6.57702 64.1994 6.60036 64.442 6.64702C64.6894 6.69369 64.9204 6.75902 65.135 6.84302C65.3497 6.92702 65.5457 7.02736 65.723 7.14402C65.9004 7.25602 66.0567 7.37969 66.192 7.51502L65.702 8.27802Z" fill="#1D4C90"/>
<path d="M71.8384 9.44702C71.8384 9.27436 71.8151 9.10636 71.7684 8.94302C71.7264 8.77969 71.6541 8.63502 71.5514 8.50902C71.4534 8.37836 71.3227 8.27336 71.1594 8.19402C70.9961 8.11469 70.7977 8.07502 70.5644 8.07502C70.1537 8.07502 69.8317 8.19402 69.5984 8.43202C69.3651 8.66536 69.2111 9.00369 69.1364 9.44702H71.8384ZM69.1084 10.707C69.1784 11.3137 69.3627 11.7547 69.6614 12.03C69.9601 12.3007 70.3451 12.436 70.8164 12.436C71.0684 12.436 71.2854 12.4057 71.4674 12.345C71.6494 12.2844 71.8104 12.2167 71.9504 12.142C72.0951 12.0674 72.2257 11.9997 72.3424 11.939C72.4637 11.8784 72.5897 11.848 72.7204 11.848C72.8931 11.848 73.0237 11.911 73.1124 12.037L73.7424 12.814C73.5184 13.0707 73.2757 13.2807 73.0144 13.444C72.7577 13.6027 72.4917 13.7287 72.2164 13.822C71.9457 13.9107 71.6727 13.9714 71.3974 14.004C71.1267 14.0414 70.8677 14.06 70.6204 14.06C70.1117 14.06 69.6334 13.9784 69.1854 13.815C68.7421 13.647 68.3524 13.3997 68.0164 13.073C67.6851 12.7464 67.4214 12.3404 67.2254 11.855C67.0341 11.3697 66.9384 10.805 66.9384 10.161C66.9384 9.67569 67.0201 9.21602 67.1834 8.78202C67.3514 8.34802 67.5894 7.96769 67.8974 7.64102C68.2101 7.31436 68.5857 7.05536 69.0244 6.86402C69.4677 6.67269 69.9671 6.57702 70.5224 6.57702C71.0031 6.57702 71.4417 6.65169 71.8384 6.80102C72.2397 6.95036 72.5827 7.16736 72.8674 7.45202C73.1567 7.73669 73.3807 8.08669 73.5394 8.50202C73.7027 8.91269 73.7844 9.37936 73.7844 9.90202C73.7844 10.0654 73.7774 10.1984 73.7634 10.301C73.7494 10.4037 73.7237 10.4854 73.6864 10.546C73.6491 10.6067 73.5977 10.6487 73.5324 10.672C73.4717 10.6954 73.3924 10.707 73.2944 10.707H69.1084Z" fill="#1D4C90"/>
<path d="M78.2163 6.57702C78.7669 6.57702 79.2686 6.66336 79.7213 6.83602C80.1739 7.00869 80.5613 7.25602 80.8833 7.57802C81.2099 7.90002 81.4619 8.29202 81.6393 8.75402C81.8213 9.21136 81.9123 9.72702 81.9123 10.301C81.9123 10.8797 81.8213 11.4024 81.6393 11.869C81.4619 12.331 81.2099 12.7254 80.8833 13.052C80.5613 13.374 80.1739 13.6237 79.7213 13.801C79.2686 13.9737 78.7669 14.06 78.2163 14.06C77.6609 14.06 77.1546 13.9737 76.6973 13.801C76.2446 13.6237 75.8526 13.374 75.5213 13.052C75.1946 12.7254 74.9403 12.331 74.7583 11.869C74.5809 11.4024 74.4923 10.8797 74.4923 10.301C74.4923 9.72702 74.5809 9.21136 74.7583 8.75402C74.9403 8.29202 75.1946 7.90002 75.5213 7.57802C75.8526 7.25602 76.2446 7.00869 76.6973 6.83602C77.1546 6.66336 77.6609 6.57702 78.2163 6.57702ZM78.2163 12.45C78.7156 12.45 79.0819 12.275 79.3153 11.925C79.5533 11.5704 79.6723 11.0337 79.6723 10.315C79.6723 9.59636 79.5533 9.06202 79.3153 8.71202C79.0819 8.36202 78.7156 8.18702 78.2163 8.18702C77.7029 8.18702 77.3273 8.36202 77.0893 8.71202C76.8513 9.06202 76.7323 9.59636 76.7323 10.315C76.7323 11.0337 76.8513 11.5704 77.0893 11.925C77.3273 12.275 77.7029 12.45 78.2163 12.45Z" fill="#1D4C90"/>
<path d="M85.007 7.47302C85.147 7.34236 85.2917 7.22102 85.441 7.10902C85.5904 6.99702 85.749 6.90369 85.917 6.82902C86.0897 6.74969 86.274 6.68902 86.47 6.64702C86.6707 6.60036 86.8877 6.57702 87.121 6.57702C87.5177 6.57702 87.8677 6.64702 88.171 6.78702C88.479 6.92236 88.738 7.11369 88.948 7.36102C89.158 7.60369 89.3167 7.89536 89.424 8.23602C89.5314 8.57202 89.585 8.93836 89.585 9.33502V13.948H87.415V9.33502C87.415 8.98036 87.3334 8.70502 87.17 8.50902C87.0067 8.30836 86.7664 8.20802 86.449 8.20802C86.211 8.20802 85.987 8.25936 85.777 8.36202C85.5717 8.46002 85.371 8.59536 85.175 8.76802V13.948H83.005V6.68902H84.349C84.6197 6.68902 84.797 6.81036 84.881 7.05302L85.007 7.47302Z" fill="#1D4C90"/>
<path d="M49.6937 19.569V21.949H52.8997V23.699H49.6937V26.128H53.8797V27.948H47.3137V17.749H53.8797V19.569H49.6937Z" fill="#1D4C90"/>
<path d="M62.0311 27.948H59.9451C59.7911 27.948 59.6651 27.9107 59.5671 27.836C59.4737 27.7614 59.3991 27.6727 59.3431 27.57L58.0481 25.344C58.0247 25.4234 57.9967 25.498 57.9641 25.568C57.9314 25.638 57.8964 25.7034 57.8591 25.764L56.7951 27.57C56.7297 27.6634 56.6527 27.7497 56.5641 27.829C56.4754 27.9084 56.3611 27.948 56.2211 27.948H54.2891L56.7251 24.196L54.3871 20.689H56.4731C56.6271 20.689 56.7391 20.71 56.8091 20.752C56.8837 20.7894 56.9491 20.8547 57.0051 20.948L58.3001 23.097C58.3281 23.013 58.3631 22.9314 58.4051 22.852C58.4471 22.768 58.4937 22.684 58.5451 22.6L59.4691 20.983C59.5344 20.8804 59.6021 20.8057 59.6721 20.759C59.7467 20.7124 59.8377 20.689 59.9451 20.689H61.9331L59.5951 24.098L62.0311 27.948Z" fill="#1D4C90"/>
<path d="M64.8723 25.974C65.0356 26.1514 65.213 26.2774 65.4043 26.352C65.5956 26.4267 65.7963 26.464 66.0063 26.464C66.207 26.464 66.3913 26.4244 66.5593 26.345C66.7273 26.2657 66.872 26.1397 66.9933 25.967C67.1193 25.7897 67.2173 25.561 67.2873 25.281C67.3573 25.001 67.3923 24.6604 67.3923 24.259C67.3923 23.8764 67.3643 23.5544 67.3083 23.293C67.2523 23.0317 67.173 22.8217 67.0703 22.663C66.9723 22.4997 66.8533 22.383 66.7133 22.313C66.5733 22.243 66.417 22.208 66.2443 22.208C65.927 22.208 65.6656 22.2664 65.4603 22.383C65.255 22.4997 65.059 22.67 64.8723 22.894V25.974ZM64.7393 21.585C65.024 21.2817 65.346 21.0344 65.7053 20.843C66.0693 20.647 66.501 20.549 67.0003 20.549C67.3783 20.549 67.7283 20.633 68.0503 20.801C68.3723 20.969 68.65 21.2117 68.8833 21.529C69.1166 21.8464 69.2986 22.236 69.4293 22.698C69.5646 23.1554 69.6323 23.6757 69.6323 24.259C69.6323 24.805 69.5553 25.309 69.4013 25.771C69.252 26.233 69.0396 26.6344 68.7643 26.975C68.4936 27.3157 68.167 27.5817 67.7843 27.773C67.4063 27.9644 66.9863 28.06 66.5243 28.06C66.1463 28.06 65.829 28.0064 65.5723 27.899C65.3156 27.7917 65.0823 27.647 64.8723 27.465V30.251H62.7023V20.689H64.0463C64.317 20.689 64.4943 20.8104 64.5783 21.053L64.7393 21.585Z" fill="#1D4C90"/>
<path d="M72.925 17.469V27.948H70.755V17.469H72.925Z" fill="#1D4C90"/>
<path d="M77.7378 20.577C78.2884 20.577 78.7901 20.6634 79.2428 20.836C79.6954 21.0087 80.0828 21.256 80.4048 21.578C80.7314 21.9 80.9834 22.292 81.1608 22.754C81.3428 23.2114 81.4338 23.727 81.4338 24.301C81.4338 24.8797 81.3428 25.4024 81.1608 25.869C80.9834 26.331 80.7314 26.7254 80.4048 27.052C80.0828 27.374 79.6954 27.6237 79.2428 27.801C78.7901 27.9737 78.2884 28.06 77.7378 28.06C77.1824 28.06 76.6761 27.9737 76.2188 27.801C75.7661 27.6237 75.3741 27.374 75.0428 27.052C74.7161 26.7254 74.4618 26.331 74.2798 25.869C74.1024 25.4024 74.0138 24.8797 74.0138 24.301C74.0138 23.727 74.1024 23.2114 74.2798 22.754C74.4618 22.292 74.7161 21.9 75.0428 21.578C75.3741 21.256 75.7661 21.0087 76.2188 20.836C76.6761 20.6634 77.1824 20.577 77.7378 20.577ZM77.7378 26.45C78.2371 26.45 78.6034 26.275 78.8368 25.925C79.0748 25.5704 79.1938 25.0337 79.1938 24.315C79.1938 23.5964 79.0748 23.062 78.8368 22.712C78.6034 22.362 78.2371 22.187 77.7378 22.187C77.2244 22.187 76.8488 22.362 76.6108 22.712C76.3728 23.062 76.2538 23.5964 76.2538 24.315C76.2538 25.0337 76.3728 25.5704 76.6108 25.925C76.8488 26.275 77.2244 26.45 77.7378 26.45Z" fill="#1D4C90"/>
<path d="M84.5565 21.809C84.7805 21.417 85.0372 21.109 85.3265 20.885C85.6205 20.661 85.9565 20.549 86.3345 20.549C86.6612 20.549 86.9272 20.626 87.1325 20.78L86.9925 22.376C86.9692 22.4787 86.9295 22.5487 86.8735 22.586C86.8222 22.6234 86.7499 22.642 86.6565 22.642C86.6192 22.642 86.5702 22.6397 86.5095 22.635C86.4489 22.6304 86.3859 22.6257 86.3205 22.621C86.2552 22.6117 86.1875 22.6047 86.1175 22.6C86.0522 22.5907 85.9915 22.586 85.9355 22.586C85.6182 22.586 85.3639 22.67 85.1725 22.838C84.9859 23.006 84.8272 23.2394 84.6965 23.538V27.948H82.5265V20.689H83.8145C83.9219 20.689 84.0105 20.6984 84.0805 20.717C84.1552 20.7357 84.2159 20.766 84.2625 20.808C84.3139 20.8454 84.3512 20.8967 84.3745 20.962C84.4025 21.0274 84.4259 21.1067 84.4445 21.2L84.5565 21.809Z" fill="#1D4C90"/>
<path d="M92.2642 23.447C92.2642 23.2744 92.2408 23.1064 92.1942 22.943C92.1522 22.7797 92.0798 22.635 91.9772 22.509C91.8792 22.3784 91.7485 22.2734 91.5852 22.194C91.4218 22.1147 91.2235 22.075 90.9902 22.075C90.5795 22.075 90.2575 22.194 90.0242 22.432C89.7908 22.6654 89.6368 23.0037 89.5622 23.447H92.2642ZM89.5342 24.707C89.6042 25.3137 89.7885 25.7547 90.0872 26.03C90.3858 26.3007 90.7708 26.436 91.2422 26.436C91.4942 26.436 91.7112 26.4057 91.8932 26.345C92.0752 26.2844 92.2362 26.2167 92.3762 26.142C92.5208 26.0674 92.6515 25.9997 92.7682 25.939C92.8895 25.8784 93.0155 25.848 93.1462 25.848C93.3188 25.848 93.4495 25.911 93.5382 26.037L94.1682 26.814C93.9442 27.0707 93.7015 27.2807 93.4402 27.444C93.1835 27.6027 92.9175 27.7287 92.6422 27.822C92.3715 27.9107 92.0985 27.9714 91.8232 28.004C91.5525 28.0414 91.2935 28.06 91.0462 28.06C90.5375 28.06 90.0592 27.9784 89.6112 27.815C89.1678 27.647 88.7782 27.3997 88.4422 27.073C88.1108 26.7464 87.8472 26.3404 87.6512 25.855C87.4598 25.3697 87.3642 24.805 87.3642 24.161C87.3642 23.6757 87.4458 23.216 87.6092 22.782C87.7772 22.348 88.0152 21.9677 88.3232 21.641C88.6358 21.3144 89.0115 21.0554 89.4502 20.864C89.8935 20.6727 90.3928 20.577 90.9482 20.577C91.4288 20.577 91.8675 20.6517 92.2642 20.801C92.6655 20.9504 93.0085 21.1674 93.2932 21.452C93.5825 21.7367 93.8065 22.0867 93.9652 22.502C94.1285 22.9127 94.2102 23.3794 94.2102 23.902C94.2102 24.0654 94.2032 24.1984 94.1892 24.301C94.1752 24.4037 94.1495 24.4854 94.1122 24.546C94.0748 24.6067 94.0235 24.6487 93.9582 24.672C93.8975 24.6954 93.8182 24.707 93.7202 24.707H89.5342Z" fill="#1D4C90"/>
<path d="M97.326 21.809C97.55 21.417 97.8067 21.109 98.0961 20.885C98.39 20.661 98.7261 20.549 99.104 20.549C99.4307 20.549 99.6967 20.626 99.9021 20.78L99.7621 22.376C99.7387 22.4787 99.6991 22.5487 99.6431 22.586C99.5917 22.6234 99.5194 22.642 99.4261 22.642C99.3887 22.642 99.3397 22.6397 99.279 22.635C99.2184 22.6304 99.1554 22.6257 99.09 22.621C99.0247 22.6117 98.9571 22.6047 98.8871 22.6C98.8217 22.5907 98.7611 22.586 98.7051 22.586C98.3877 22.586 98.1334 22.67 97.9421 22.838C97.7554 23.006 97.5967 23.2394 97.466 23.538V27.948H95.2961V20.689H96.584C96.6914 20.689 96.7801 20.6984 96.8501 20.717C96.9247 20.7357 96.9854 20.766 97.0321 20.808C97.0834 20.8454 97.1207 20.8967 97.1441 20.962C97.1721 21.0274 97.1954 21.1067 97.2141 21.2L97.326 21.809Z" fill="#1D4C90"/>
<defs>
<filter id="filter0_d_47_2315" x="-0.826978" y="-0.8271" width="35.654" height="35.654" filterUnits="userSpaceOnUse" colorInterpolationFilters="sRGB">
<feFlood flood-opacity="0" result="BackgroundImageFix"/>
<feColorMatrix in="SourceAlpha" type="matrix" values="0 0 0 0 0 0 0 0 0 0 0 0 0 0 0 0 0 0 127 0" result="hardAlpha"/>
<feOffset/>
<feGaussianBlur stdDeviation="3.4"/>
<feComposite in2="hardAlpha" operator="out"/>
<feColorMatrix type="matrix" values="0 0 0 0 0 0 0 0 0 0 0 0 0 0 0 0 0 0 0.25 0"/>
<feBlend mode="normal" in2="BackgroundImageFix" result="effect1_dropShadow_47_2315"/>
<feBlend mode="normal" in="SourceGraphic" in2="effect1_dropShadow_47_2315" result="shape"/>
</filter>
<filter id="filter1_d_47_2315" x="5.59005" y="5.59017" width="22.8199" height="22.8199" filterUnits="userSpaceOnUse" colorInterpolationFilters="sRGB">
<feFlood flood-opacity="0" result="BackgroundImageFix"/>
<feColorMatrix in="SourceAlpha" type="matrix" values="0 0 0 0 0 0 0 0 0 0 0 0 0 0 0 0 0 0 127 0" result="hardAlpha"/>
<feOffset/>
<feGaussianBlur stdDeviation="2.83333"/>
<feComposite in2="hardAlpha" operator="out"/>
<feColorMatrix type="matrix" values="0 0 0 0 0 0 0 0 0 0 0 0 0 0 0 0 0 0 0.25 0"/>
<feBlend mode="normal" in2="BackgroundImageFix" result="effect1_dropShadow_47_2315"/>
<feBlend mode="normal" in="SourceGraphic" in2="effect1_dropShadow_47_2315" result="shape"/>
</filter>
<clipPath id="clip0_47_2315">
<rect width="34" height="34" fill="white"/>
</clipPath>
</defs>
</svg>
